# xmcd
#
# Track frame offsets: 
#        150
#        20737
#        41983
#        57562
#        78281
#        98671
#        121813
#        140513
#        160421
#        182251
#        201703
#        219563
#        240304
#        260467
#        286119
#        307187
#        327260
#
# Disc length: 4619 seconds
#
# Revision: 0
# Processed by: cddbd v1.5.1PL0 Copyright (c) Steve Scherf et al.
# Submitted via: ExactAudioCopy v0.90b4
#
DISCID=f9120911
DTITLE=Whitney Houston - Greatest Ballads 2000
DYEAR=1999
DGENRE=Ballad
TTITLE0=I Will Always Love You
TTITLE1=One Moment In Time
TTITLE2=Exhale (Shoop Shoop)
TTITLE3=Why Does It Hurt So Bad
TTITLE4=When You Believe with Mariah Carey
TTITLE5=Didn't We Almost Have It All
TTITLE6=All The Man That I Need
TTITLE7=Count On Me with Cece Winans
TTITLE8=I Have Nothing
TTITLE9=I Learned From The Best
TTITLE10=Saving All My Love For You
TTITLE11=Where Do Broken Hearts Go
TTITLE12=I Know Him So Well with Cissy Houston
TTITLE13=Miracle
TTITLE14=Heartbreak Hotel feat. Faith Evans and Kelly Price
TTITLE15=All At Once
TTITLE16=You're Still My Man
EXTD=
EXTT0=
EXTT1=
EXTT2=
EXTT3=
EXTT4=
EXTT5=
EXTT6=
EXTT7=
EXTT8=
EXTT9=
EXTT10=
EXTT11=
EXTT12=
EXTT13=
EXTT14=
EXTT15=
EXTT16=
PLAYORDER=
